<?xml version="1.0" encoding="utf-8"?>
<!-- Generator: Adobe Illustrator 25.4.1, SVG Export Plug-In . SVG Version: 6.00 Build 0)  -->
<svg version="1.1" id="layer" xmlns="http://www.w3.org/2000/svg" xmlns:xlink="http://www.w3.org/1999/xlink" x="0px"
	y="0px" viewBox="0 0 100 100" style="enable-background:new 0 0 100 100;" xml:space="preserve">
	<style type="text/css">
		.st0 {
			fill: #BFBFBF;
		}
	</style>
	<g id="group">
		<g id="Group">
			<g id="group_00000032628249991423912640000012585178376162857095_">
				<path id="efw" class="st0" d="M24.3,92.4c-0.8,0.8,2.3,4.3,3.5,4.9s11.6,2.1,20.1-1.9c8.6-4,26.3-41.1,26.6-42.9
				c0.3-1.8-1.3-2.1-1.9-2.1s-16.6,0-18.1,0c-1.4,0-2.6-1.1-2.8-2.1c-0.1-1,7.8-5.9,8-6.1s0.1-1.1-0.3-1.1c-0.5,0-6.4-0.5-7.3-0.6
				c-0.9-0.1-2.2-1-2.5-1.3c-0.4-0.3-0.1-1.8,0.3-2.2c0.4-0.4,12.3,0.2,12.3,0.2S62,36.4,61.4,36c-0.5-0.4-3.2-1.9-4.7-2.4
				s-4.2,0-4.3-0.2s-0.1-1.2,1.3-3.1c1.4-1.9,6-1.6,6.4-1.9s0.2-1.7,0.2-2.5s-5-4.9-5.9-4.9s-5.7,3.8-5.8,5.5c0,3-3.5,9.2-4.6,9.2
				s-9.6-8.8-10.2-11.1c-0.5-2.3,8-5.7,7.8-7.2c-0.1-1.5-5.5-0.8-5.9-0.9s-0.5-0.8-0.3-1.3s0.4-0.8,3.5-0.9c1.4,0,2.9,0.5,4.2,1.3
				c0.5,0.2,2.7,1.3,3.7,1.2c1.1-0.1,2.5-1.7,3.3-2.8c0.8-1.2,1.8-4.4,1.8-5.3c-0.1-0.8-0.6-1.3-1.6-1.9c-1.1-0.7-6.1-0.8-9.8-0.7
				c-3.8,0.2-9.1,3.6-9.1,3.6L31.8,2c-2.5,4.3-2.6,25.5-2.6,25.5S27,27,26.9,27.9c-1.3,11.2,1.8,17.5,1.8,17.5s2.4,0.1,4.3-0.1
				c4,5.1,5.9,20.7,5.9,31.5c0,5.7-2.8,9.3-3.4,10C33.8,88.6,25.1,91.5,24.3,92.4z" />
				<path id="rg" class="st0" d="M68.5,8.7L68.5,8.7c0.6,0,1.2,0,1.8,0l0,0c1.7,0,3.5,0.2,5.2,0.4c0.3,0,0.5-0.3,0.2-0.5
				C73.8,7,70.9,6,67.7,6c-0.3,0-0.6,0-0.9,0c-0.2,0-0.5,0-0.7,0l0,0c-1.3,0.1-2.5,0.5-3.6,1l0,0c-0.8,0.6-1.5,1.4-1.9,2.4l0,0
				c-0.2,0.7-0.4,1.3-0.4,2.1c0,1.5,0.6,2.8,1.6,3.8l0,0c0.5,0.1,1,0.4,1.5,0.2c1.4-0.5,1.7-1.3,2.8-2.3c0.7-0.6,1.1-0.8,1.7-1.2
				c0.4-0.3,1.3-0.4,2.6-0.7c0.7-0.1,1.2-0.2,1.9-0.1c0.3,0,0.7-1,0.4-1.2c-0.6-0.4-1.3-0.2-2.1-0.2c-1.8,0-4,0.5-4.8,0.8
				c-0.2,0.1-0.4,0-0.4-0.2c-0.1-0.5,0.1-0.7,0.2-0.8C65.8,9.3,67.7,8.9,68.5,8.7z" />
			</g>
		</g>
	</g>
</svg>